HIERARCHY
ROOT Hips
{
 OFFSET 0.000000 0.000000 0.000000
 CHANNELS 6 Xposition Yposition Zposition Yrotation Xrotation Zrotation
 JOINT Chest
 {
  OFFSET 0.000000 11.395451 -0.039534
  CHANNELS 3 Yrotation Xrotation Zrotation
  JOINT Chest2
  {
   OFFSET 0.000000 9.398669 0.071813
   CHANNELS 3 Yrotation Xrotation Zrotation
   JOINT Chest3
   {
    OFFSET 0.000000 8.489801 0.000000
    CHANNELS 3 Yrotation Xrotation Zrotation
    JOINT Chest4
    {
     OFFSET 0.000000 8.489801 0.000000
     CHANNELS 3 Yrotation Xrotation Zrotation
     JOINT Neck
     {
      OFFSET 0.000000 12.404889 0.000000
      CHANNELS 3 Yrotation Xrotation Zrotation
      JOINT Head
      {
       OFFSET 0.000000 8.903270 0.092239
       CHANNELS 3 Yrotation Xrotation Zrotation
       End Site
       {
        OFFSET 0.000000 17.592497 0.007158
       }
      }
     }
     JOINT RightCollar
     {
      OFFSET -3.196775 6.966722 0.000000
      CHANNELS 3 Yrotation Xrotation Zrotation
      JOINT RightShoulder
      {
       OFFSET -15.955896 0.000000 0.000000
       CHANNELS 3 Yrotation Xrotation Zrotation
       JOINT RightElbow
       {
        OFFSET -24.792472 0.000000 0.000000
        CHANNELS 3 Yrotation Xrotation Zrotation
        JOINT RightWrist
        {
         OFFSET -20.900115 0.000000 0.025002
         CHANNELS 3 Yrotation Xrotation Zrotation
         End Site
         {
          OFFSET -16.056692 0.000000 0.000000
         }
        }
       }
      }
     }
     JOINT LeftCollar
     {
      OFFSET 3.196775 6.966722 0.000000
      CHANNELS 3 Yrotation Xrotation Zrotation
      JOINT LeftShoulder
      {
       OFFSET 15.955896 0.000000 0.000000
       CHANNELS 3 Yrotation Xrotation Zrotation
       JOINT LeftElbow
       {
        OFFSET 24.792472 0.000000 0.000000
        CHANNELS 3 Yrotation Xrotation Zrotation
        JOINT LeftWrist
        {
         OFFSET 20.900115 0.000000 0.025002
         CHANNELS 3 Yrotation Xrotation Zrotation
         End Site
         {
          OFFSET 16.056692 0.000000 0.000000
         }
        }
       }
      }
     }
    }
   }
  }
 }
 JOINT RightHip
 {
  OFFSET -9.568995 0.193718 0.019767
  CHANNELS 3 Yrotation Xrotation Zrotation
  JOINT RightKnee
  {
   OFFSET 0.000000 -56.649296 0.015402
   CHANNELS 3 Yrotation Xrotation Zrotation
   JOINT RightAnkle
   {
    OFFSET 0.000000 -41.365147 0.021264
    CHANNELS 3 Yrotation Xrotation Zrotation
    JOINT RightToe
    {
     OFFSET 0.000000 -7.465940 17.672538
     CHANNELS 3 Yrotation Xrotation Zrotation
     End Site
     {
      OFFSET 0.000000 -1.736315 7.837145
     }
    }
   }
  }
 }
 JOINT LeftHip
 {
  OFFSET 9.568995 0.193718 0.019767
  CHANNELS 3 Yrotation Xrotation Zrotation
  JOINT LeftKnee
  {
   OFFSET 0.000000 -56.649296 0.015402
   CHANNELS 3 Yrotation Xrotation Zrotation
   JOINT LeftAnkle
   {
    OFFSET 0.000000 -41.365147 0.021264
    CHANNELS 3 Yrotation Xrotation Zrotation
    JOINT LeftToe
    {
     OFFSET 0.000000 -7.465940 17.672538
     CHANNELS 3 Yrotation Xrotation Zrotation
     End Site
     {
      OFFSET 0.000000 -1.736315 7.837145
     }
    }
   }
  }
 }
}
MOTION
Frames: 12
Frame Time: 0.016667
48.401201 53.311303 21.109153 -12.989242 4.335982 -0.005462 -5.265203 4.526631 -2.146531 -2.317228 2.036058 -0.901792 -2.317228 2.036059 -0.901789 -1.734737 1.530494 -0.668557 -8.524477 18.507221 1.863417 -16.242106 -1.124527 6.150671 0.389863 0.833106 7.569900 3.541919 0.510781 78.969100 41.139290 3.632643 19.669188 -4.360012 -0.692004 0.143720 -0.105862 4.378585 -6.680228 4.263547 -8.773416 -62.328636 -42.695531 9.288146 -23.100840 -2.193731 -4.884387 -0.637733 5.562021 -38.483866 0.739492 7.316886 45.470558 3.920939 6.212030 -3.598637 -0.909634 0.000000 0.000000 0.000000 13.247936 -23.632987 -5.790305 -7.016242 26.711786 -1.104890 -2.263313 -8.352469 -1.507331 0.000000 0.000000 0.000000
47.992620 53.206924 21.343568 -12.715521 4.384456 -0.396901 -5.383294 4.515443 -2.270889 -2.368518 2.033070 -0.956000 -2.368518 2.033070 -0.956000 -1.773026 1.528538 -0.709055 -8.528669 18.498264 1.950234 -16.278243 -1.127272 6.311470 0.366913 0.747824 7.640156 3.318993 0.589536 79.128248 41.534567 3.766213 19.918783 -4.177588 -0.606451 -0.073359 -0.002428 4.396834 -6.643955 4.074285 -8.762660 -61.899791 -43.496537 8.726129 -23.307614 -2.112554 -4.802962 -0.776731 5.467933 -39.200548 0.865809 7.118160 43.309569 3.749292 6.473399 -1.727602 -1.177652 0.000000 0.000000 0.000000 13.114916 -24.096045 -5.332142 -7.174612 27.795241 -1.082934 -2.318835 -9.081563 -1.275859 0.000000 0.000000 0.000000
47.548360 53.090187 21.551701 -12.523584 4.410777 -0.850445 -5.452762 4.532524 -2.384757 -2.398151 2.042335 -1.005683 -2.398149 2.042334 -1.005686 -1.795064 1.535727 -0.746183 -8.532727 18.451943 2.050618 -16.322455 -1.196704 6.502110 0.364878 0.715467 7.703392 3.138161 0.643417 79.245021 42.018406 3.922158 20.118798 -3.940849 -0.475885 -0.297325 0.091817 4.412749 -6.565541 3.980808 -8.806422 -61.572718 -44.326559 8.173214 -23.512617 -2.033368 -4.738455 -0.887643 5.751093 -39.918456 0.797862 6.162052 41.454226 3.392296 6.829796 -0.005078 -1.112300 0.000000 0.000000 0.000000 13.057939 -24.562971 -4.808616 -7.333976 28.880648 -1.037296 -2.311672 -9.742304 -0.958262 0.000000 0.000000 0.000000
47.078052 52.958343 21.736498 -12.381407 4.427861 -1.351839 -5.490308 4.563470 -2.491855 -2.413579 2.057541 -1.052491 -2.413576 2.057539 -1.052491 -1.806446 1.547341 -0.781169 -8.539066 18.383846 2.157879 -16.375396 -1.304770 6.709165 0.376898 0.712101 7.756141 2.977491 0.684451 79.327876 42.545434 4.064613 20.304911 -3.676164 -0.336219 -0.517819 0.173927 4.432319 -6.470367 3.949264 -8.878390 -61.287750 -45.192043 7.582034 -23.743288 -1.940182 -4.695678 -0.981868 6.177212 -40.630000 0.629673 4.812845 39.845509 2.982080 7.248712 1.675184 -0.842873 0.000000 0.000000 0.000000 13.037393 -25.057893 -4.240558 -7.506772 29.999101 -0.968619 -2.250503 -10.381743 -0.598352 0.000000 0.000000 0.000000
46.605061 52.803442 21.911160 -12.220537 4.464368 -1.855259 -5.529789 4.580351 -2.605358 -2.429886 2.066602 -1.102293 -2.429886 2.066602 -1.102293 -1.818495 1.554369 -0.818426 -8.544424 18.327118 2.272503 -16.427687 -1.390689 6.927936 0.387262 0.696505 7.794164 2.811976 0.727298 79.365029 43.050237 4.141048 20.551662 -3.465198 -0.270963 -0.678990 0.219101 4.466243 -6.404157 4.002828 -8.919910 -60.918887 -46.167463 6.812803 -24.137481 -1.848848 -4.692266 -1.054577 6.391832 -41.309978 0.497845 3.621001 38.387619 2.637885 7.634415 3.270939 -0.412278 0.000000 0.000000 0.000000 12.937782 -25.607159 -3.669509 -7.695632 31.171130 -0.885539 -2.129586 -11.045558 -0.306888 0.000000 0.000000 0.000000
46.153309 52.624980 22.084965 -12.038370 4.516882 -2.336567 -5.577392 4.578209 -2.729588 -2.449809 2.067409 -1.157019 -2.449808 2.067410 -1.157023 -1.833248 1.555231 -0.859401 -8.549105 18.293785 2.389687 -16.477260 -1.432910 7.147945 0.393960 0.657787 7.812660 2.626921 0.782308 79.338796 43.520381 4.087173 20.880169 -3.335400 -0.342525 -0.731890 0.202047 4.499461 -6.409311 4.130628 -8.897596 -60.444734 -47.235469 5.753347 -24.675633 -1.778085 -4.741908 -1.102674 6.211752 -41.934514 0.478233 2.848021 37.088902 2.459899 7.857944 4.733052 0.153529 0.000000 0.000000 0.000000 12.691695 -26.197088 -3.126604 -7.955560 32.401518 -0.798652 -1.838503 -11.734422 -0.128378 0.000000 0.000000 0.000000
45.698875 52.423461 22.248635 -11.837944 4.589267 -2.819729 -5.627358 4.562243 -2.860287 -2.470812 2.062187 -1.214764 -2.470807 2.062187 -1.214768 -1.848810 1.551586 -0.902657 -8.552380 18.271816 2.514144 -16.525441 -1.453011 7.379190 0.398361 0.606890 7.816441 2.437310 0.839287 79.266460 43.965982 3.965190 21.266314 -3.259089 -0.488982 -0.725874 0.148539 4.548746 -6.443651 4.346027 -8.850038 -59.886934 -48.396557 4.505189 -25.364132 -1.710895 -4.830017 -1.125775 5.809480 -42.522705 0.510695 2.215038 35.943499 2.340391 8.044026 6.118009 0.860876 0.000000 0.000000 0.000000 12.362985 -26.836732 -2.576565 -8.234662 33.685911 -0.706280 -1.485473 -12.444906 -0.022731 0.000000 0.000000 0.000000
45.193357 52.192450 22.387532 -11.560158 4.722703 -3.330607 -5.696295 4.520715 -2.997849 -2.500377 2.045835 -1.275691 -2.500377 2.045835 -1.275691 -1.870821 1.539633 -0.948313 -8.548982 18.258144 2.660588 -16.567199 -1.455105 7.647325 0.388666 0.535944 7.815679 2.262573 0.882604 79.188384 44.359469 3.912937 21.719022 -3.234483 -0.606195 -0.751243 0.111783 4.672318 -6.425937 4.709099 -8.831147 -59.184477 -49.736403 3.234271 -26.377079 -1.609937 -4.932265 -1.123022 5.360496 -43.113516 0.532020 1.465355 34.833041 2.087128 8.489446 7.533214 1.740038 0.000000 0.000000 0.000000 12.031911 -27.586914 -1.962055 -8.371701 35.030635 -0.586974 -1.395368 -13.218116 0.034124 0.000000 0.000000 0.000000
44.612668 51.933177 22.493971 -11.193761 4.925520 -3.885790 -5.800587 4.444302 -3.145964 -2.545838 2.014397 -1.341430 -2.545845 2.014403 -1.341426 -1.904781 1.516436 -0.997590 -8.523933 18.266070 2.833463 -16.575119 -1.415992 7.953777 0.359699 0.469726 7.810243 2.131776 0.863391 79.127098 44.654942 3.987886 22.242594 -3.293968 -0.660805 -0.848518 0.106595 4.971072 -6.322642 5.412063 -8.996946 -58.326675 -51.287771 1.933464 -27.912039 -1.448212 -5.068278 -1.078251 4.961948 -43.726799 0.509723 0.292744 33.718926 1.530854 9.523098 9.085401 2.993695 0.000000 0.000000 0.000000 11.737697 -28.464148 -1.231921 -8.178103 36.431951 -0.380131 -1.820976 -14.090370 0.064728 0.000000 0.000000 0.000000
43.980896 51.644413 22.575638 -10.751926 5.192193 -4.467076 -5.925052 4.343783 -3.301153 -2.600426 1.972548 -1.410486 -2.600430 1.972556 -1.410483 -1.945592 1.485466 -1.049381 -8.492144 18.281913 3.028373 -16.576887 -1.359253 8.297182 0.315875 0.384278 7.800110 2.014638 0.830121 79.060265 44.908839 4.133187 22.836079 -3.406155 -0.684886 -0.973962 0.124634 5.343271 -6.166657 6.260764 -9.215590 -57.331458 -52.964640 0.560220 -29.768040 -1.256438 -5.218787 -1.003771 4.516661 -44.341194 0.474709 -0.976286 32.634435 0.855494 10.842952 10.639075 4.465436 0.000000 0.000000 0.000000 11.433597 -29.456554 -0.438743 -7.826670 37.893018 -0.108043 -2.514542 -15.028774 0.063134 0.000000 0.000000 0.000000
43.321901 51.316033 22.640954 -10.212923 5.544186 -5.047111 -6.039073 4.237650 -3.453181 -2.650514 1.928155 -1.478373 -2.650514 1.928155 -1.478373 -1.983046 1.452570 -1.100335 -8.494569 18.262766 3.246313 -16.652599 -1.357636 8.698467 0.257287 0.198925 7.795279 1.844684 0.914841 78.960364 45.251623 4.312969 23.499989 -3.472747 -0.672706 -1.092732 0.178583 5.541274 -5.975431 6.745857 -9.093759 -56.166080 -54.715432 -0.756186 -31.518567 -1.078949 -5.302608 -0.948576 3.909882 -44.934377 0.457088 -1.661196 31.575003 0.384246 11.788556 11.946894 5.633759 0.000000 0.000000 0.000000 11.071229 -30.583596 0.317025 -7.707844 39.429612 0.114807 -3.048826 -15.972183 0.007860 0.000000 0.000000 0.000000
42.646684 50.947085 22.697244 -9.536600 6.002975 -5.606877 -6.150255 4.115089 -3.605830 -2.699550 1.876505 -1.546805 -2.699551 1.876493 -1.546787 -2.019750 1.414239 -1.151711 -8.546047 18.205227 3.491719 -16.831389 -1.413935 9.170708 0.170482 -0.184578 7.801707 1.564343 1.248488 78.822889 45.731477 4.587481 24.241604 -3.437910 -0.584458 -1.226360 0.276743 5.442590 -5.746216 6.666626 -8.389889 -54.770412 -56.572894 -1.969754 -33.038075 -0.968624 -5.317203 -0.869527 2.898836 -45.455995 0.594511 -1.295697 30.452071 0.261264 11.948179 12.905861 6.104221 0.000000 0.000000 0.000000 10.650014 -31.861442 0.959880 -8.080235 41.049367 0.198446 -3.208219 -16.891129 -0.154912 0.000000 0.000000 0.000000
